{
  "accessors": [
    {
      "bufferView": 2,
      "componentType": 5126,
      "count": 1696,
      "max": [
        0.8655700087547302,
        1.119320034980774,
        0.26572999358177185
      ],
      "min": [
        -2.0036098957061768,
        -1.0707900524139404,
        -11.029170036315918
      ],
      "type": "VEC3"
    },
    {
      "bufferView": 2,
      "byteOffset": 20352,
      "componentType": 5126,
      "count": 1696,
      "max": [
        0.9995258450508118,
        1.0,
        0.9999980330467224
      ],
      "min": [
        -0.9995258450508118,
        -0.9999962449073792,
        -0.9999980330467224
      ],
      "type": "VEC3"
    },
    {
      "bufferView": 1,
      "componentType": 5126,
      "count": 1696,
      "max": [
        0.0,
        0.0
      ],
      "min": [
        0.0,
        0.0
      ],
      "type": "VEC2"
    },
    {
      "bufferView": 0,
      "componentType": 5125,
      "count": 8406,
      "type": "SCALAR"
    },
    {
      "bufferView": 2,
      "byteOffset": 40704,
      "componentType": 5126,
      "count": 6292,
      "max": [
        5.958640098571777,
        1.4635200500488281,
        -1.5451899766921997
      ],
      "min": [
        -5.958640098571777,
        -1.2882800102233887,
        -11.22898006439209
      ],
      "type": "VEC3"
    },
    {
      "bufferView": 2,
      "byteOffset": 116208,
      "componentType": 5126,
      "count": 6292,
      "max": [
        0.9998031258583069,
        0.9994353652000427,
        0.9999808669090271
      ],
      "min": [
        -0.9998028874397278,
        -0.9996896982192993,
        -0.9999948143959045
      ],
      "type": "VEC3"
    },
    {
      "bufferView": 1,
      "byteOffset": 13568,
      "componentType": 5126,
      "count": 6292,
      "max": [
        0.7814000248908997,
        0.7775800228118896
      ],
      "min": [
        0.0,
        0.0
      ],
      "type": "VEC2"
    },
    {
      "bufferView": 0,
      "byteOffset": 33624,
      "componentType": 5125,
      "count": 34728,
      "type": "SCALAR"
    },
    {
      "bufferView": 2,
      "byteOffset": 191712,
      "componentType": 5126,
      "count": 15329,
      "max": [
        9.140789985656738,
        1.616129994392395,
        2.8747599124908447
      ],
      "min": [
        -9.140789985656738,
        -2.2953999042510986,
        -17.853759765625
      ],
      "type": "VEC3"
    },
    {
      "bufferView": 2,
      "byteOffset": 375660,
      "componentType": 5126,
      "count": 15329,
      "max": [
        0.9999783635139465,
        0.9999590516090393,
        0.9995589256286621
      ],
      "min": [
        -0.9999783635139465,
        -0.9999558329582214,
        -0.9999772906303406
      ],
      "type": "VEC3"
    },
    {
      "bufferView": 1,
      "byteOffset": 63904,
      "componentType": 5126,
      "count": 15329,
      "max": [
        0.9995099902153015,
        0.9746800065040588
      ],
      "min": [
        0.0,
        0.0
      ],
      "type": "VEC2"
    },
    {
      "bufferView": 0,
      "byteOffset": 172536,
      "componentType": 5125,
      "count": 70632,
      "type": "SCALAR"
    },
    {
      "bufferView": 2,
      "byteOffset": 559608,
      "componentType": 5126,
      "count": 8828,
      "max": [
        5.802680015563965,
        1.866569995880127,
        -1.5628199577331543
      ],
      "min": [
        -5.802680015563965,
        -1.1493699550628662,
        -11.029170036315918
      ],
      "type": "VEC3"
    },
    {
      "bufferView": 2,
      "byteOffset": 665544,
      "componentType": 5126,
      "count": 8828,
      "max": [
        0.9999914765357971,
        0.9999998211860657,
        0.9996559619903564
      ],
      "min": [
        -0.9999914765357971,
        -0.999988853931427,
        -0.9995791912078857
      ],
      "type": "VEC3"
    },
    {
      "bufferView": 1,
      "byteOffset": 186536,
      "componentType": 5126,
      "count": 8828,
      "max": [
        0.7833099961280823,
        0.9813500046730042
      ],
      "min": [
        0.0008500000112690032,
        0.0005499999970197678
      ],
      "type": "VEC2"
    },
    {
      "bufferView": 0,
      "byteOffset": 455064,
      "componentType": 5125,
      "count": 42042,
      "type": "SCALAR"
    },
    {
      "bufferView": 2,
      "byteOffset": 771480,
      "componentType": 5126,
      "count": 4056,
      "max": [
        0.919409990310669,
        1.1516799926757813,
        1.0603899955749512
      ],
      "min": [
        -0.919409990310669,
        -1.0702999830245972,
        -1.6999599933624268
      ],
      "type": "VEC3"
    },
    {
      "bufferView": 2,
      "byteOffset": 820152,
      "componentType": 5126,
      "count": 4056,
      "max": [
        0.9999998211860657,
        0.9999553561210632,
        0.99994295835495
      ],
      "min": [
        -0.9999998211860657,
        -0.9999896883964539,
        -0.999919056892395
      ],
      "type": "VEC3"
    },
    {
      "bufferView": 1,
      "byteOffset": 257160,
      "componentType": 5126,
      "count": 4056,
      "max": [
        0.6441299915313721,
        0.7776700258255005
      ],
      "min": [
        0.0,
        0.0
      ],
      "type": "VEC2"
    },
    {
      "bufferView": 0,
      "byteOffset": 623232,
      "componentType": 5125,
      "count": 23208,
      "type": "SCALAR"
    },
    {
      "bufferView": 2,
      "byteOffset": 868824,
      "componentType": 5126,
      "count": 84,
      "max": [
        0.7799999713897705,
        -0.5857700109481812,
        0.3315100073814392
      ],
      "min": [
        -0.7799999713897705,
        -0.8026300072669983,
        0.2568899989128113
      ],
      "type": "VEC3"
    },
    {
      "bufferView": 2,
      "byteOffset": 869832,
      "componentType": 5126,
      "count": 84,
      "max": [
        0.9298978447914124,
        0.9350762963294983,
        0.9979187846183777
      ],
      "min": [
        -0.9298978447914124,
        -0.9798675775527954,
        -0.9931886792182922
      ],
      "type": "VEC3"
    },
    {
      "bufferView": 1,
      "byteOffset": 289608,
      "componentType": 5126,
      "count": 84,
      "max": [
        0.0,
        0.0
      ],
      "min": [
        0.0,
        0.0
      ],
      "type": "VEC2"
    },
    {
      "bufferView": 0,
      "byteOffset": 716064,
      "componentType": 5125,
      "count": 480,
      "type": "SCALAR"
    },
    {
      "bufferView": 2,
      "byteOffset": 870840,
      "componentType": 5126,
      "count": 144,
      "max": [
        0.4713500142097473,
        -0.6703299880027771,
        0.09227000176906586
      ],
      "min": [
        -0.4713500142097473,
        -0.7773900032043457,
        -0.20348000526428223
      ],
      "type": "VEC3"
    },
    {
      "bufferView": 2,
      "byteOffset": 872568,
      "componentType": 5126,
      "count": 144,
      "max": [
        0.9904294013977051,
        0.9989239573478699,
        0.9306331276893616
      ],
      "min": [
        -0.9904294013977051,
        -0.9917280077934265,
        -0.9260900616645813
      ],
      "type": "VEC3"
    },
    {
      "bufferView": 1,
      "byteOffset": 290280,
      "componentType": 5126,
      "count": 144,
      "max": [
        0.0,
        0.0
      ],
      "min": [
        0.0,
        0.0
      ],
      "type": "VEC2"
    },
    {
      "bufferView": 0,
      "byteOffset": 717984,
      "componentType": 5125,
      "count": 840,
      "type": "SCALAR"
    },
    {
      "bufferView": 2,
      "byteOffset": 874296,
      "componentType": 5126,
      "count": 1240,
      "max": [
        0.5710899829864502,
        1.2078800201416016,
        -1.229949951171875
      ],
      "min": [
        -0.5710899829864502,
        -0.5806199908256531,
        -2.290940046310425
      ],
      "type": "VEC3"
    },
    {
      "bufferView": 2,
      "byteOffset": 889176,
      "componentType": 5126,
      "count": 1240,
      "max": [
        0.9999101161956787,
        0.9997551441192627,
        0.999993622303009
      ],
      "min": [
        -0.9999101161956787,
        -0.9189907908439636,
        -0.9999995827674866
      ],
      "type": "VEC3"
    },
    {
      "bufferView": 1,
      "byteOffset": 291432,
      "componentType": 5126,
      "count": 1240,
      "max": [
        0.6473100185394287,
        0.7777199745178223
      ],
      "min": [
        0.05761000141501427,
        0.36664000153541565
      ],
      "type": "VEC2"
    },
    {
      "bufferView": 0,
      "byteOffset": 721344,
      "componentType": 5125,
      "count": 6648,
      "type": "SCALAR"
    },
    {
      "bufferView": 2,
      "byteOffset": 904056,
      "componentType": 5126,
      "count": 5516,
      "max": [
        2.3208200931549072,
        2.8755600452423096,
        1.5589900016784668
      ],
      "min": [
        -2.3208200931549072,
        -1.5885299444198608,
        -7.880070209503174
      ],
      "type": "VEC3"
    },
    {
      "bufferView": 2,
      "byteOffset": 970248,
      "componentType": 5126,
      "count": 5516,
      "max": [
        0.9993495345115662,
        0.9999867081642151,
        0.9998572468757629
      ],
      "min": [
        -0.9998716711997986,
        -0.9998598694801331,
        -0.9993913173675537
      ],
      "type": "VEC3"
    },
    {
      "bufferView": 1,
      "byteOffset": 301352,
      "componentType": 5126,
      "count": 5516,
      "max": [
        0.9959700107574463,
        0.9991199970245361
      ],
      "min": [
        0.0008800000068731606,
        0.0008800000068731606
      ],
      "type": "VEC2"
    },
    {
      "bufferView": 0,
      "byteOffset": 747936,
      "componentType": 5125,
      "count": 22656,
      "type": "SCALAR"
    }
  ],
  "asset": {
    "extras": {
      "author": "Matt (https://sketchfab.com/furyiousfight)",
      "license": "CC-BY-4.0 (http://creativecommons.org/licenses/by/4.0/)",
      "source": "https://sketchfab.com/3d-models/mt-lady-fe18c7b12acf4e93810135ad96168853",
      "title": "Mt lady"
    },
    "generator": "Sketchfab-12.67.0",
    "version": "2.0"
  },
  "bufferViews": [
    {
      "buffer": 0,
      "byteLength": 838560,
      "name": "floatBufferViews",
      "target": 34963
    },
    {
      "buffer": 0,
      "byteLength": 345480,
      "byteOffset": 838560,
      "byteStride": 8,
      "name": "floatBufferViews",
      "target": 34962
    },
    {
      "buffer": 0,
      "byteLength": 1036440,
      "byteOffset": 1184040,
      "byteStride": 12,
      "name": "floatBufferViews",
      "target": 34962
    }
  ],
  "buffers": [
    {
      "byteLength": 2220480,
      "uri": "scene.bin"
    }
  ],
  "materials": [
    {
      "doubleSided": true,
      "name": "Material.005",
      "pbrMetallicRoughness": {
        "baseColorFactor": [
          0.8387991189956665,
          0.760524570941925,
          0.5711249709129333,
          1.0
        ],
        "metallicFactor": 0.0,
        "roughnessFactor": 0.6
      }
    },
    {
      "doubleSided": true,
      "name": "Material.001",
      "pbrMetallicRoughness": {
        "baseColorFactor": [
          0.8000000715255737,
          0.1548582762479782,
          0.0,
          1.0
        ],
        "metallicFactor": 0.0,
        "roughnessFactor": 0.6
      }
    },
    {
      "doubleSided": true,
      "name": "Material",
      "pbrMetallicRoughness": {
        "metallicFactor": 0.0,
        "roughnessFactor": 0.6
      }
    },
    {
      "doubleSided": true,
      "name": "Material.002",
      "pbrMetallicRoughness": {
        "baseColorFactor": [
          0.05951124429702759,
          0.020288560539484024,
          0.25015830993652344,
          1.0
        ],
        "metallicFactor": 0.0,
        "roughnessFactor": 0.6
      }
    },
    {
      "doubleSided": true,
      "name": "Material.003",
      "pbrMetallicRoughness": {
        "baseColorFactor": [
          0.8069523572921753,
          0.7304609417915344,
          0.6583749651908875,
          1.0
        ],
        "metallicFactor": 0.0,
        "roughnessFactor": 0.6
      }
    },
    {
      "doubleSided": true,
      "name": "Material.004",
      "pbrMetallicRoughness": {
        "baseColorFactor": [
          0.9386858344078064,
          0.7156935930252075,
          0.5711249709129333,
          1.0
        ],
        "metallicFactor": 0.0,
        "roughnessFactor": 0.6
      }
    },
    {
      "doubleSided": true,
      "name": "Material.006",
      "pbrMetallicRoughness": {
        "baseColorFactor": [
          0.23839758336544037,
          0.033104777336120605,
          0.09989873319864273,
          1.0
        ],
        "metallicFactor": 0.0,
        "roughnessFactor": 0.6
      }
    }
  ],
  "meshes": [
    {
      "name": "Sphere.003_0",
      "primitives": [
        {
          "attributes": {
            "NORMAL": 1,
            "POSITION": 0,
            "TEXCOORD_0": 2
          },
          "indices": 3,
          "material": 2,
          "mode": 4
        }
      ]
    },
    {
      "name": "Sphere.003_1",
      "primitives": [
        {
          "attributes": {
            "NORMAL": 5,
            "POSITION": 4,
            "TEXCOORD_0": 6
          },
          "indices": 7,
          "material": 1,
          "mode": 4
        }
      ]
    },
    {
      "name": "Sphere.003_2",
      "primitives": [
        {
          "attributes": {
            "NORMAL": 9,
            "POSITION": 8,
            "TEXCOORD_0": 10
          },
          "indices": 11,
          "material": 3,
          "mode": 4
        }
      ]
    },
    {
      "name": "Sphere.003_3",
      "primitives": [
        {
          "attributes": {
            "NORMAL": 13,
            "POSITION": 12,
            "TEXCOORD_0": 14
          },
          "indices": 15,
          "material": 4,
          "mode": 4
        }
      ]
    },
    {
      "name": "Sphere.003_4",
      "primitives": [
        {
          "attributes": {
            "NORMAL": 17,
            "POSITION": 16,
            "TEXCOORD_0": 18
          },
          "indices": 19,
          "material": 5,
          "mode": 4
        }
      ]
    },
    {
      "name": "Sphere.003_5",
      "primitives": [
        {
          "attributes": {
            "NORMAL": 21,
            "POSITION": 20,
            "TEXCOORD_0": 22
          },
          "indices": 23,
          "material": 0,
          "mode": 4
        }
      ]
    },
    {
      "name": "Sphere.003_6",
      "primitives": [
        {
          "attributes": {
            "NORMAL": 25,
            "POSITION": 24,
            "TEXCOORD_0": 26
          },
          "indices": 27,
          "material": 6,
          "mode": 4
        }
      ]
    },
    {
      "name": "Sphere.001_0",
      "primitives": [
        {
          "attributes": {
            "NORMAL": 29,
            "POSITION": 28,
            "TEXCOORD_0": 30
          },
          "indices": 31,
          "material": 1,
          "mode": 4
        }
      ]
    },
    {
      "name": "Sphere.000_0",
      "primitives": [
        {
          "attributes": {
            "NORMAL": 33,
            "POSITION": 32,
            "TEXCOORD_0": 34
          },
          "indices": 35,
          "material": 0,
          "mode": 4
        }
      ]
    }
  ],
  "nodes": [
    {
      "children": [
        1
      ],
      "matrix": [
        1.0,
        0.0,
        0.0,
        0.0,
        0.0,
        2.220446049250313e-16,
        -1.0,
        0.0,
        0.0,
        1.0,
        2.220446049250313e-16,
        0.0,
        0.0,
        0.0,
        0.0,
        1.0
      ],
      "name": "Sketchfab_model"
    },
    {
      "children": [
        2,
        4,
        12,
        14
      ],
      "name": "Root"
    },
    {
      "children": [
        3
      ],
      "matrix": [
        -0.29086000000000006,
        0.9551700000000001,
        -0.05519000000000001,
        0.0,
        -0.7711,
        -0.19988000000000003,
        0.6045200000000001,
        0.0,
        0.5663900000000001,
        0.21839000000000003,
        0.7946700000000001,
        0.0,
        1.27026,
        3.61782,
        0.6237400000000002,
        1.0
      ],
      "name": "Lamp"
    },
    {
      "name": "Lamp"
    },
    {
      "children": [
        5,
        6,
        7,
        8,
        9,
        10,
        11
      ],
      "matrix": [
        0.51763,
        0.0,
        0.0,
        0.0,
        0.0,
        0.49772000000000005,
        0.0,
        0.0,
        0.0,
        0.0,
        0.49772000000000005,
        0.0,
        0.0,
        0.015420000000000001,
        3.8718499999999993,
        1.0
      ],
      "name": "Sphere.003"
    },
    {
      "mesh": 0,
      "name": "Sphere.003_0"
    },
    {
      "mesh": 1,
      "name": "Sphere.003_1"
    },
    {
      "mesh": 2,
      "name": "Sphere.003_2"
    },
    {
      "mesh": 3,
      "name": "Sphere.003_3"
    },
    {
      "mesh": 4,
      "name": "Sphere.003_4"
    },
    {
      "mesh": 5,
      "name": "Sphere.003_5"
    },
    {
      "mesh": 6,
      "name": "Sphere.003_6"
    },
    {
      "children": [
        13
      ],
      "matrix": [
        0.51763,
        0.0,
        0.0,
        0.0,
        0.0,
        0.49772000000000005,
        0.0,
        0.0,
        0.0,
        0.0,
        0.49772000000000005,
        0.0,
        0.0,
        0.015420000000000001,
        3.8718499999999993,
        1.0
      ],
      "name": "Sphere.001"
    },
    {
      "mesh": 7,
      "name": "Sphere.001_0"
    },
    {
      "children": [
        15
      ],
      "matrix": [
        0.51763,
        0.0,
        0.0,
        0.0,
        0.0,
        0.49772000000000005,
        0.0,
        0.0,
        0.0,
        0.0,
        0.49772000000000005,
        0.0,
        0.0,
        0.015420000000000001,
        3.8718499999999993,
        1.0
      ],
      "name": "Sphere.000"
    },
    {
      "mesh": 8,
      "name": "Sphere.000_0"
    }
  ],
  "scene": 0,
  "scenes": [
    {
      "name": "Sketchfab_Scene",
      "nodes": [
        0
      ]
    }
  ]
}
